<svg id="Layer_1" data-name="Layer 1" xmlns="http://www.w3.org/2000/svg" viewBox="0 0 703.84 104.8"><defs><style>.cls-1{fill:#1d1d1b;}</style></defs><title>BA_LOGO_BOLD_SUBLINE</title><path class="cls-1" d="M23.23,10.72h14.6c5.58,0,9.43,1.07,12.22,3.28a14.67,14.67,0,0,1,5,11.32c0,5.08-2,8.53-6,10.91,3.77,0.82,5.25,1.56,7.13,3.44a14.52,14.52,0,0,1,3.94,10.25c0,9.51-7.13,15.42-18.45,15.42H23.23V10.72Zm13.69,22.8c5.41,0,8.28-2.54,8.28-7.22,0-4.51-2.87-7.05-8.12-7.05h-3.2V33.51h3Zm1.56,23.21c7.3,0,11-2.54,11-7.54,0-5.17-3.61-7.54-11.56-7.54h-4V56.72h4.59Z" transform="translate(-22.98 -8.09)"/><path class="cls-1" d="M137.7,65.33H124.58l-14.76-22h-1.31v22H97.85V10.72h15.83c6.07,0,10.58,1.31,13.78,3.94A16.23,16.23,0,0,1,132.95,27c0,5.41-2.38,10.33-6.4,13a13.07,13.07,0,0,1-6,2.3ZM111.54,35.81c6.81,0,10.74-3,10.74-8.28s-3.77-8.2-10.58-8.2h-3.28V35.81h3.12Z" transform="translate(-22.98 -8.09)"/><path class="cls-1" d="M182.88,53.85L178,65.33H166.73L190.35,9.57h8l23,55.76h-11.4l-4.76-11.48h-22.3ZM194.2,25.56l-7.87,19.68h15.58Z" transform="translate(-22.98 -8.09)"/><path class="cls-1" d="M255.62,9.49H263l33.29,38V10.72H307V66.39h-7.3l-33.37-38v36.9H255.62V9.49Z" transform="translate(-22.98 -8.09)"/><path class="cls-1" d="M347.38,10.72H364.1c16.07,0,28.37,11.81,28.37,27.22,0,15.58-12.3,27.39-28.45,27.39H347.38V10.72Zm14.68,45.43c11.73,0,19.43-7.22,19.43-18.12s-7.71-18-19.43-18h-4V56.14h4Z" transform="translate(-22.98 -8.09)"/><path class="cls-1" d="M437.66,49.91L431,65.33h-6.56L449.55,8.09l24.6,57.24H467.5l-6.56-15.42H437.66Zm11.81-27.63-9.35,22h18.45Z" transform="translate(-22.98 -8.09)"/><path class="cls-1" d="M515.64,59.67h15.09v5.66H509.57V10.72h6.07v49Z" transform="translate(-22.98 -8.09)"/><path class="cls-1" d="M572.87,59.67H588v5.66H566.8V10.72h6.07v49Z" transform="translate(-22.98 -8.09)"/><path class="cls-1" d="M630.19,16.37V32.53h21.57v5.66H630.19v21.4h22.22v5.74H624.12V10.72h28.29v5.66H630.19Z" transform="translate(-22.98 -8.09)"/><path class="cls-1" d="M684.88,11h7l13.87,24.23L719.8,11h7l-18,31V65.33h-6.12V42Z" transform="translate(-22.98 -8.09)"/><path class="cls-1" d="M30,111.75H27.23V95.85H23V93.24H34.26v2.61H30v15.9Z" transform="translate(-22.98 -8.09)"/><path class="cls-1" d="M60.34,100.49V93.24h2.78v18.52H60.34v-8.65h-8v8.65H49.56V93.24h2.78v7.26h8Z" transform="translate(-22.98 -8.09)"/><path class="cls-1" d="M83.17,95.85v4.45h7.2v2.61h-7.2v6.2h7.4v2.64H80.36V93.24h10.2v2.61h-7.4Z" transform="translate(-22.98 -8.09)"/><path class="cls-1" d="M125.38,92l13.48,14.12V93.24h2.81v19.66L128.16,98.8v13h-2.78V92Z" transform="translate(-22.98 -8.09)"/><path class="cls-1" d="M167.69,92.88a9.61,9.61,0,1,1-.06,19.21,9.52,9.52,0,0,1-9.67-9.51A9.68,9.68,0,0,1,167.69,92.88Zm0,16.6a6.87,6.87,0,0,0,6.84-7A6.85,6.85,0,1,0,167.66,109.47Z" transform="translate(-22.98 -8.09)"/><path class="cls-1" d="M193.63,92l13.48,14.12V93.24h2.81v19.66L196.41,98.8v13h-2.78V92Z" transform="translate(-22.98 -8.09)"/><path class="cls-1" d="M230.28,104.66V107h-5.34v-2.34h5.34Z" transform="translate(-22.98 -8.09)"/><path class="cls-1" d="M253.49,97.33c-0.86-1.39-1.47-1.81-2.75-1.81A2.47,2.47,0,0,0,248,97.83c0,0.89.67,1.61,2,2.17l1.83,0.75c3,1.22,4.34,2.92,4.34,5.45a5.74,5.74,0,0,1-5.95,5.89c-3.23,0-5.42-2-5.92-5.45l2.84-.61c0.31,2.45,1.22,3.45,3.2,3.45a3,3,0,0,0,3-3.09c0-1.45-.78-2.36-2.64-3.17l-1.78-.75c-2.56-1.06-3.81-2.58-3.81-4.7,0-2.78,2.42-4.89,5.56-4.89a5.26,5.26,0,0,1,3.59,1.28A5.76,5.76,0,0,1,255.74,96Z" transform="translate(-22.98 -8.09)"/><path class="cls-1" d="M276.83,111.75h-2.78V95.85H269.8V93.24h11.29v2.61h-4.25v15.9Z" transform="translate(-22.98 -8.09)"/><path class="cls-1" d="M304.51,92.88a9.61,9.61,0,1,1-.06,19.21,9.52,9.52,0,0,1-9.67-9.51A9.68,9.68,0,0,1,304.51,92.88Zm0,16.6a6.87,6.87,0,0,0,6.84-7A6.85,6.85,0,1,0,304.49,109.47Z" transform="translate(-22.98 -8.09)"/><path class="cls-1" d="M333.23,111.75h-2.78V93.24h3.17c2.86,0,4,.25,5.2,1.17a5.54,5.54,0,0,1,2,4.34c0,3.36-2.45,5.5-6.31,5.5h-1.31v7.51Zm1.06-10.09c2.56,0,3.84-1,3.84-3s-1.28-2.86-3.95-2.86h-0.95v5.84h1.06Z" transform="translate(-22.98 -8.09)"/><path class="cls-1" d="M374.86,93.24h3.89c3.2,0,5,.47,6.84,1.78a9,9,0,0,1,3.59,7.48,8.82,8.82,0,0,1-3.73,7.51c-1.89,1.36-3.42,1.75-6.76,1.75h-3.84V93.24Zm4.06,15.9a7.33,7.33,0,0,0,4.89-1.33,6.39,6.39,0,0,0,2.53-5.31,6.61,6.61,0,0,0-2.5-5.34,7.68,7.68,0,0,0-4.92-1.31h-1.28v13.29h1.28Z" transform="translate(-22.98 -8.09)"/><path class="cls-1" d="M408.3,95.85v4.45h7.2v2.61h-7.2v6.2h7.4v2.64H405.5V93.24h10.2v2.61h-7.4Z" transform="translate(-22.98 -8.09)"/><path class="cls-1" d="M440.36,97.33c-0.86-1.39-1.47-1.81-2.75-1.81a2.47,2.47,0,0,0-2.72,2.31c0,0.89.67,1.61,2,2.17l1.83,0.75c3,1.22,4.34,2.92,4.34,5.45a5.74,5.74,0,0,1-6,5.89c-3.22,0-5.42-2-5.92-5.45L434,106c0.31,2.45,1.22,3.45,3.2,3.45a3,3,0,0,0,3-3.09c0-1.45-.78-2.36-2.64-3.17l-1.78-.75c-2.56-1.06-3.81-2.58-3.81-4.7,0-2.78,2.42-4.89,5.56-4.89a5.26,5.26,0,0,1,3.59,1.28A5.76,5.76,0,0,1,442.61,96Z" transform="translate(-22.98 -8.09)"/><path class="cls-1" d="M462,111.75h-2.78V93.24H462v18.52Z" transform="translate(-22.98 -8.09)"/><path class="cls-1" d="M496.47,102.13v0.58a9,9,0,0,1-1.64,5.92,8.68,8.68,0,0,1-7,3.47,9.53,9.53,0,0,1-9.45-9.59,9.63,9.63,0,0,1,9.7-9.65,9.42,9.42,0,0,1,5.56,1.81,10.53,10.53,0,0,1,2,1.95l-2,1.95a6.58,6.58,0,0,0-5.59-3.06,7,7,0,0,0-.17,14,5.61,5.61,0,0,0,5.53-4.75h-4.62v-2.61h7.65Z" transform="translate(-22.98 -8.09)"/><path class="cls-1" d="M512.79,92l13.48,14.12V93.24h2.81v19.66L515.57,98.8v13h-2.78V92Z" transform="translate(-22.98 -8.09)"/><path class="cls-1" d="M549.13,95.85v4.45h7.2v2.61h-7.2v6.2h7.4v2.64h-10.2V93.24h10.2v2.61h-7.4Z" transform="translate(-22.98 -8.09)"/><path class="cls-1" d="M585,111.75h-3.42l-5.28-7.59h-0.5v7.59H573V93.24h3.28c2.39,0,3.7.28,4.87,1.06a5.21,5.21,0,0,1,2.22,4.36,5.12,5.12,0,0,1-4.09,5.2Zm-8.34-10c2.59,0,4-1.08,4-3s-1.33-2.89-3.86-2.89h-1v5.92h0.89Z" transform="translate(-22.98 -8.09)"/><path class="cls-1" d="M628.23,97.33c-0.86-1.39-1.47-1.81-2.75-1.81a2.47,2.47,0,0,0-2.72,2.31c0,0.89.67,1.61,2,2.17l1.83,0.75c3,1.22,4.34,2.92,4.34,5.45a5.74,5.74,0,0,1-6,5.89c-3.22,0-5.42-2-5.92-5.45l2.83-.61c0.31,2.45,1.22,3.45,3.2,3.45a3,3,0,0,0,3-3.09c0-1.45-.78-2.36-2.64-3.17l-1.78-.75c-2.56-1.06-3.81-2.58-3.81-4.7,0-2.78,2.42-4.89,5.56-4.89a5.26,5.26,0,0,1,3.59,1.28A5.76,5.76,0,0,1,630.48,96Z" transform="translate(-22.98 -8.09)"/><path class="cls-1" d="M650.64,107.25l-2.08,4.5h-3l9.17-19.68,8.84,19.68h-3.06l-1.95-4.5h-7.92Zm4-8.92-2.86,6.31h5.62Z" transform="translate(-22.98 -8.09)"/><path class="cls-1" d="M682,109.14h5.45v2.61h-8.23V93.24H682v15.9Z" transform="translate(-22.98 -8.09)"/><path class="cls-1" d="M706.27,95.85v4.45h7.2v2.61h-7.2v6.2h7.4v2.64h-10.2V93.24h10.2v2.61h-7.4Z" transform="translate(-22.98 -8.09)"/></svg>