<svg width="150" height="14" viewBox="0 0 150 14" fill="none" xmlns="http://www.w3.org/2000/svg">
<path d="M0 1.30283H3.0056C4.15432 1.30283 4.94689 1.53841 5.52125 2.02497C5.85224 2.3351 6.11586 2.71884 6.29366 3.14934C6.47145 3.57983 6.55913 4.04668 6.55056 4.51722C6.55056 5.63565 6.13884 6.39521 5.31538 6.9192C6.09149 7.09973 6.39617 7.26265 6.78319 7.67656C7.31936 8.28623 7.61057 9.09646 7.59429 9.93323C7.59429 12.027 6.12648 13.3281 3.79611 13.3281H0V1.30283ZM2.81827 6.32256C3.93198 6.32256 4.52281 5.76334 4.52281 4.73298C4.52281 3.74004 3.93199 3.18083 2.8512 3.18083H2.19244V6.32035H2.81003L2.81827 6.32256ZM3.13941 11.4325C4.64221 11.4325 5.40391 10.8733 5.40391 9.77251C5.40391 8.63427 4.66074 8.11248 3.02413 8.11248H2.20068V11.4303H3.14559L3.13941 11.4325Z" fill="black"/>
<path d="M24.0506 13.3281H21.3417L18.2942 8.48367H18.0238V13.3281H15.8228V1.30283H19.0912C20.3445 1.30283 21.2757 1.5913 21.9364 2.17044C22.2972 2.51001 22.5852 2.92848 22.7808 3.39737C22.9764 3.86626 23.075 4.37457 23.0699 4.88775C23.0699 6.07905 22.5785 7.16245 21.7485 7.75039C21.3815 8.02653 20.9557 8.20062 20.5097 8.25686L24.0506 13.3281ZM18.6494 6.82774C20.0554 6.82774 20.8669 6.16713 20.8669 5.00446C20.8669 3.84178 20.0885 3.19879 18.6824 3.19879H18.0052V6.82774H18.6494Z" fill="black"/>
<path d="M33.9354 10.8523L32.861 13.3281H30.3797L35.58 1.30283H37.3413L42.4051 13.3281H39.8952L38.8472 10.8523H33.9354ZM36.4276 4.75127L34.6949 8.9955H38.1251L36.4276 4.75127Z" fill="black"/>
<path d="M49.3671 1.30283H50.9125L57.8838 9.3338V1.56278H60.1266V13.3281H58.5979L51.6099 5.29718V13.0957H49.3671V1.30283Z" fill="black"/>
<path d="M68.9873 1.30283H72.5077C75.8913 1.30283 78.481 3.90344 78.481 7.29677C78.481 10.7275 75.8913 13.3281 72.4909 13.3281H68.9873V1.30283ZM72.0782 11.3067C74.548 11.3067 76.1692 9.71681 76.1692 7.31659C76.1692 4.91637 74.5458 3.35293 72.0782 3.35293H71.236V11.3045H72.0782V11.3067Z" fill="black"/>
<path d="M88.1361 9.91812L86.7794 13.3281H85.443L90.5583 0.669922L95.5696 13.3281H94.2149L92.8786 9.91812H88.1361ZM90.542 3.80794L88.6373 8.67309H92.3958L90.542 3.80794Z" fill="black"/>
<path d="M105.068 12.0818H108.228V13.3281H103.797V1.30283H105.068V12.0928V12.0818Z" fill="black"/>
<path d="M117.091 12.0818H120.253V13.3281H115.823V1.30283H117.091V12.0928V12.0818Z" fill="black"/>
<path d="M129.07 2.54698V6.10547H133.413V7.35182H129.07V12.0642H133.544V13.3281H127.848V1.30283H133.544V2.54919H129.07V2.54698Z" fill="black"/>
<path d="M141.139 1.30283H142.619L145.551 6.66586L148.52 1.30283H150L146.195 8.16432V13.3281H144.902V8.16432L141.139 1.30283Z" fill="black"/>
</svg>
