<?xml version="1.0" encoding="utf-8"?>
<!-- Generator: Adobe Illustrator 20.0.0, SVG Export Plug-In . SVG Version: 6.00 Build 0)  -->
<svg version="1.1" id="Layer_1" xmlns="http://www.w3.org/2000/svg" xmlns:xlink="http://www.w3.org/1999/xlink" x="0px" y="0px"
	 viewBox="0 0 1095 174" style="enable-background:new 0 0 1095 174;" xml:space="preserve">
<style type="text/css">
	.st0{fill:#1D1E1B;}
</style>
<g>
	<g>
		<path class="st0" d="M10.7,10.4H33c8.5,0,14.4,1.6,18.7,5c4.8,3.9,7.7,10.4,7.7,17.3c0,7.8-3,13.1-9.2,16.7
			c5.8,1.3,8,2.4,10.9,5.3c3.9,3.9,6,9.7,6,15.7C67.2,85,56.2,94,38.9,94H10.7V10.4z M31.6,45.3c8.3,0,12.7-3.9,12.7-11
			c0-6.9-4.4-10.8-12.4-10.8H27v21.8H31.6z M34,80.8c11.2,0,16.8-3.9,16.8-11.6c0-7.9-5.5-11.6-17.7-11.6H27v23.1H34z"/>
		<path class="st0" d="M185.9,94h-20.1l-22.6-33.7h-2V94h-16.3V10.4h24.2c9.3,0,16.2,2,21.1,6c5.3,4.4,8.4,11.6,8.4,19
			c0,8.3-3.6,15.8-9.8,19.8c-2.8,1.9-4.5,2.6-9.2,3.5L185.9,94z M145.9,48.8c10.4,0,16.4-4.5,16.4-12.7c0-8-5.8-12.6-16.2-12.6h-5
			v25.2H145.9z"/>
		<path class="st0" d="M255.1,76.4L247.6,94h-17.2l36.2-85.4h12.2L314,94h-17.5l-7.3-17.6H255.1z M272.5,33.1l-12.1,30.1h23.9
			L272.5,33.1z"/>
		<path class="st0" d="M366.5,8.5h11.3l51,58.3V10.4h16.3v85.3h-11.2l-51.1-58.1V94h-16.3V8.5z"/>
		<path class="st0" d="M507,10.4h25.6c24.6,0,43.4,18.1,43.4,41.7c0,23.9-18.8,41.9-43.6,41.9H507V10.4z M529.5,80
			c18,0,29.8-11.1,29.8-27.8c0-16.7-11.8-27.6-29.8-27.6h-6.2V80H529.5z"/>
		<path class="st0" d="M645.2,70.4L635.1,94h-10l38.4-87.6L701.1,94h-10.2l-10-23.6H645.2z M663.3,28.1L649,61.8h28.3L663.3,28.1z"
			/>
		<path class="st0" d="M764.6,85.4h23.1V94h-32.4V10.4h9.3V85.4z"/>
		<path class="st0" d="M852.3,85.4h23.1V94H843V10.4h9.3V85.4z"/>
		<path class="st0" d="M940,19.1v24.7h33v8.7h-33v32.8h34V94h-43.3V10.4h43.3v8.7H940z"/>
		<path class="st0" d="M1023.8,10.8h10.7l21.2,37.1l21.5-37.1h10.7l-27.6,47.5V94h-9.4V58.3L1023.8,10.8z"/>
	</g>
	<g>
		<path class="st0" d="M19.5,165.1h-1.8v-26.6h-7.3v-1.7h16.5v1.7h-7.4V165.1z"/>
		<path class="st0" d="M69.9,148.8v-12h1.8v28.4h-1.8v-14.6H52.7v14.6h-1.8v-28.4h1.8v12H69.9z"/>
		<path class="st0" d="M100.9,138.5v10.3h11.5v1.7h-11.5v13h11.7v1.7H99v-28.4h13.6v1.7H100.9z"/>
		<path class="st0" d="M169.8,136.4l23.8,25v-24.6h1.8v29.1l-23.8-24.9v24.2h-1.8V136.4z"/>
		<path class="st0" d="M235.8,136.4c8,0,14.7,6.6,14.7,14.6c0,8-6.7,14.6-14.7,14.6c-8,0-14.7-6.6-14.7-14.6
			C221.1,143,227.7,136.4,235.8,136.4z M235.8,163.9c7,0,12.8-5.8,12.8-12.9c0-7.1-5.8-12.9-12.9-12.9c-7,0-12.8,5.8-12.8,12.9
			C222.9,158,228.8,163.9,235.8,163.9z"/>
		<path class="st0" d="M276.1,136.4l23.8,25v-24.6h1.8v29.1L278,140.9v24.2h-1.8V136.4z"/>
		<path class="st0" d="M332.3,155.5v1.7h-7.2v-1.7H332.3z"/>
		<path class="st0" d="M368.7,141.5c-1.7-2.5-3.1-3.4-5.6-3.4c-3.1,0-5.4,2.3-5.4,5.4c0,2.3,1.1,3.5,5.1,5.4
			c3.7,1.8,4.3,2.1,5.6,2.9c2,1.3,3,3.2,3,5.4c0,4.6-4,8.3-8.9,8.3c-2.6,0-4.9-1.1-6.6-3c-0.8-0.9-1.1-1.5-1.7-3.1l1.6-0.7
			c0.7,1.6,0.9,2,1.6,2.7c1.2,1.5,3.2,2.4,5.2,2.4c3.8,0,7-3,7-6.6c0-1.8-1-3.3-2.8-4.4c-0.8-0.4-1.7-0.9-2.9-1.5
			c-2.8-1.4-4.2-2.1-5.3-2.9c-1.8-1.2-2.7-2.9-2.7-5.1c0-4.1,3.1-7.1,7.3-7.1c2.9,0,5.4,1.5,6.9,4L368.7,141.5z"/>
		<path class="st0" d="M401.9,165.1h-1.8v-26.6h-7.3v-1.7h16.5v1.7h-7.4V165.1z"/>
		<path class="st0" d="M445.5,136.4c8,0,14.7,6.6,14.7,14.6c0,8-6.7,14.6-14.7,14.6c-8,0-14.7-6.6-14.7-14.6
			C430.7,143,437.4,136.4,445.5,136.4z M445.5,163.9c7,0,12.8-5.8,12.8-12.9c0-7.1-5.8-12.9-12.9-12.9c-7,0-12.8,5.8-12.8,12.9
			C432.6,158,438.4,163.9,445.5,163.9z"/>
		<path class="st0" d="M487.6,165.1h-1.8v-28.4h5.4c2.9,0,4.8,0.6,6.2,2.2c1.3,1.4,2,3.2,2,5.3c0,4.6-3.1,7.4-8.2,7.4h-3.6V165.1z
			 M491.3,150c3.8,0,6.3-2.3,6.3-5.7c0-3.8-2.3-5.7-6.6-5.7h-3.4V150H491.3z"/>
		<path class="st0" d="M555.8,136.8h5.6c4.5,0,7.7,1.2,10.4,3.9c2.7,2.7,4.2,6.3,4.2,10.3s-1.5,7.6-4.2,10.3
			c-2.7,2.7-6,3.9-10.4,3.9h-5.6V136.8z M561.4,163.5c7.4,0,12.7-5.2,12.7-12.5c0-7.3-5.3-12.5-12.7-12.5h-3.7v25H561.4z"/>
		<path class="st0" d="M603.5,138.5v10.3H615v1.7h-11.5v13h11.7v1.7h-13.6v-28.4h13.6v1.7H603.5z"/>
		<path class="st0" d="M653.8,141.5c-1.7-2.5-3.1-3.4-5.6-3.4c-3.1,0-5.4,2.3-5.4,5.4c0,2.3,1.1,3.5,5.1,5.4
			c3.7,1.8,4.3,2.1,5.6,2.9c2,1.3,3,3.2,3,5.4c0,4.6-4,8.3-8.9,8.3c-2.6,0-4.9-1.1-6.6-3c-0.8-0.9-1.1-1.5-1.7-3.1l1.6-0.7
			c0.7,1.6,0.9,2,1.6,2.7c1.2,1.5,3.2,2.4,5.2,2.4c3.8,0,7-3,7-6.6c0-1.8-1-3.3-2.8-4.4c-0.8-0.4-1.7-0.9-2.9-1.5
			c-2.8-1.4-4.2-2.1-5.3-2.9c-1.8-1.2-2.7-2.9-2.7-5.1c0-4.1,3.1-7.1,7.3-7.1c2.9,0,5.4,1.5,6.9,4L653.8,141.5z"/>
		<path class="st0" d="M684.1,165.1h-1.8v-28.4h1.8V165.1z"/>
		<path class="st0" d="M738.1,151.5v0.3c0,4.3-0.8,6.7-2.8,9c-2.6,3-6.8,4.8-10.9,4.8c-8,0-14.6-6.6-14.6-14.6
			c0-8,6.7-14.6,14.8-14.6c3.2,0,6.4,1.1,8.9,3c1.2,1,1.9,1.7,3.4,3.6l-1.5,1.1c-1.3-1.7-1.8-2.3-2.7-3.1c-2.2-1.9-5.2-3-8.1-3
			c-7,0-12.9,6-12.9,13c0,6.9,5.8,12.8,12.8,12.8c4.1,0,8.5-2.3,10.4-5.4c0.9-1.5,1.1-2.6,1.3-5.2l-10,0v-1.7H738.1z"/>
		<path class="st0" d="M763.7,136.4l23.8,25v-24.6h1.8v29.1l-23.8-24.9v24.2h-1.8V136.4z"/>
		<path class="st0" d="M818.5,138.5v10.3h11.5v1.7h-11.5v13h11.7v1.7h-13.6v-28.4h13.6v1.7H818.5z"/>
		<path class="st0" d="M869.9,165.1h-2.2l-9.2-13.4h-0.8v13.4h-1.8v-28.4h4c2.9,0,4.6,0.4,6,1.4c1.8,1.3,2.9,3.5,2.9,6.1
			c0,3.4-1.8,6.1-4.6,7c-1.1,0.3-1.6,0.4-3.4,0.5L869.9,165.1z M860.4,150c4.1,0,6.5-2.1,6.5-5.8c0-2.2-1-4.1-2.5-4.9
			c-1.1-0.6-2.5-0.9-4.3-0.9h-2.3V150H860.4z"/>
		<path class="st0" d="M941.4,141.5c-1.7-2.5-3.1-3.4-5.6-3.4c-3.1,0-5.4,2.3-5.4,5.4c0,2.3,1.1,3.5,5.1,5.4
			c3.7,1.8,4.3,2.1,5.6,2.9c2,1.3,3,3.2,3,5.4c0,4.6-4,8.3-8.9,8.3c-2.6,0-4.9-1.1-6.6-3c-0.8-0.9-1.1-1.5-1.7-3.1l1.6-0.7
			c0.7,1.6,0.9,2,1.6,2.7c1.2,1.5,3.2,2.4,5.2,2.4c3.8,0,7-3,7-6.6c0-1.8-1-3.3-2.8-4.4c-0.8-0.4-1.7-0.9-2.9-1.5
			c-2.8-1.4-4.2-2.1-5.3-2.9c-1.8-1.2-2.7-2.9-2.7-5.1c0-4.1,3.1-7.1,7.3-7.1c2.9,0,5.4,1.5,6.9,4L941.4,141.5z"/>
		<path class="st0" d="M973.2,155.8l-3.8,9.3h-2l11.9-29.2l11.8,29.2h-2l-3.8-9.3H973.2z M979.3,140.7l-5.4,13.4h10.7L979.3,140.7z"
			/>
		<path class="st0" d="M1017.8,163.4h7.2v1.7h-9v-28.4h1.8V163.4z"/>
		<path class="st0" d="M1051.7,138.5v10.3h11.5v1.7h-11.5v13h11.7v1.7h-13.6v-28.4h13.6v1.7H1051.7z"/>
	</g>
</g>
</svg>
